<!DOCTYPE svg PUBLIC "-//W3C//DTD SVG 1.1//EN" "http://www.w3.org/Graphics/SVG/1.1/DTD/svg11.dtd">
<svg version="1.1" xmlns="http://www.w3.org/2000/svg" xmlns:xlink="http://www.w3.org/1999/xlink" xml:space="preserve">
<path fill="#AAAAAA" d="M115.688,556.627c0.039-0.161,0.077-0.323,0.116-0.484c0.507-0.459,1.145-0.434,1.765-0.477
	c4.389-0.104,8.778-0.083,13.168-0.018c1.243-0.129,2.488-0.062,3.731-0.062c69.35-0.003,138.7-0.005,208.051,0.011
	c1.344,0,2.773-0.325,3.983,0.622c0.004,0.136,0.007,0.273,0.011,0.409C269.571,556.627,192.63,556.627,115.688,556.627z"/>
<path fill="#EEA777" d="M2.452,501.657c-0.144-0.85,2.455-1.156,4.176-1.009c2.927,0.25,5.953,2.445,8.85,3.125
	c3.888,0.913,7.853,1.478,11.852,1.485c8.582,0.014,16.843-2.569,24.239-6.84c11.325-6.539,20.866-15.64,30.385-24.491
	c5.933-5.517,11.903-10.993,17.833-16.513c5.18-4.822,10.45-11.699,16.717-15.08c0.701-0.378,1.622-0.026,1.9,0.351
	c4.943,6.709,10.775,10.979,18,15c1.977,1.1,3.594,2.835,5.664,3.764c1.098,0.493,2.733,0.659,3.647,1.472
	c2.356,2.096-5.261,5.698-6.576,6.417c-5.8,3.169-12.57,5.39-14.35,12.441c-1.827,7.237-3.211,14.557-4.209,21.952
	c-0.092,0.678,0.04,1.489-0.8,1.86c-0.607-0.369-0.689-0.811-0.488-1.034c-2.444,2.711-5.281,5.724-8.9,6.758
	c-1.975,0.564-3.446,0.158-5.239-0.717c-2.054-1.002-2.861-0.403-4.955,0.122c-1.835,0.46-3.818,0.204-5.564-0.482
	c-1.751-0.688-2.883-2.007-3.917-3.521c-0.912-1.335-1.792-3.757-3.641-2.399c-1.986,1.458-3.467,3.621-5.989,4.335
	c-13.464,3.811-23.494,12.486-38.048,13.581c-8.162,0.614-16.693-0.321-24.175-3.805C14.214,516.264,4.071,511.227,2.452,501.657z"
	/>
<path fill="#202020" d="M346.256,556.008c-1.939,0.254-3.873,0.224-5.848,0.224c-68.938,0.001-137.877,0.001-206.815-0.002
	c-0.981,0-1.963-0.045-2.944-0.069c-0.319-0.275-0.471-0.646-0.471-1.045c-0.001-3.729-0.148-7.454,0.132-11.187
	c0.63-8.407,2.481-16.709,2.181-25.196c-0.047-1.341,0.33-2.826-1.89-2.873c-0.907-0.019-0.821-1.08-0.624-1.773
	c1.629-5.734,3.372-11.346,7.005-16.305c6.416-8.758,13.634-16.768,21.543-24.151c4.734-4.419,9.485-8.83,14.188-13.278
	c3.125-2.956,6.046-6.166,9.059-9.262c1.373-1.41,2.761-2.814,4.382-3.929c4.375-3.009,7.497-7.287,11.209-10.965
	c1.072-1.062,1.814-2.391,2.36-3.82c0.338-0.886-0.023-1.074-0.801-0.944c-0.46,0.077-0.884,0.271-1.237,0.571
	c-2.655,2.254-5.627,4.066-8.498,6.011c-5.115,3.465-9.443,7.877-14.281,11.676c-4.995,3.922-10.197,7.57-15.136,11.564
	c-1.171,0.947-2.408,1.816-3.428,2.935c-1.272,1.395-2.786,1.576-4.48,0.953c-1.842-0.677-3.731-1.221-5.542-1.981
	c-3.577-0.851-6.452-3.169-9.636-4.803c-4.916-2.523-9.591-5.419-13.578-9.503c-3.96-4.057-7.048-8.764-10.843-12.911
	c-2.649-2.895-4.607-5.842-7.571-9.005c-0.396-1.18,0.352-1.576,1.275-1.706c2.791-0.395,0.825-24.706,2.938-26.422
	c13.111-10.645,13.588-21.627,22.5-35.5c7.758-12.077,16.69-21.998,25.25-33.5c6.8-9.137,17.13-6.015,24.5-14.75
	c8.729-10.345,16.919-16.87,27.25-24.25c5.934-4.239,14.09-7.603,19-12.75c4.862-5.096,6.136-10.937,12.5-13.25
	c7.195-2.614,10.047-3.286,13.5-8.75c4.644-7.349,15.684-8.319,23.672-10.422c3.615-0.951,7.396-0.766,11.112-1.006
	c4.068-0.064,8.084,0.58,12.125,0.861c5.419,0.377,10.828,0.901,16.165,1.891c6.104,1.133,12.241,2.087,18.315,3.38
	c0.901,0.192,1.719,0.624,2.553,1.005c0.579,0.265,1.232,0.842,1.811,0.407c0.655-0.49,0.044-1.19-0.087-1.799
	c-0.136-0.632-0.696-1.371,0.375-1.75c0.06,0.025,0.119,0.059,0.182,0.075c4.702,1.186,7.685,4.569,10.239,8.322
	c16.621,24.426,32.419,44.399,37.396,74.513c4.123,24.946,7.004,50.56,2.54,75.645c-4.569,25.671-15.105,49.087-23.275,73.681
	c-4.159,12.519-9.16,24.747-13.136,37.329C349.402,530.817,348.347,543.181,346.256,556.008z"/>
<path fill="#EEA777" d="M256.464,248.775c-2.073-4.293-3.812-8.727-5.648-13.122c-1.66-3.973-3.281-7.961-4.933-11.937
	c-1.222-2.939-1.562-6.035-1.987-9.122c-0.482-3.501-0.246-7.043-0.467-10.553c-0.33-5.246-0.748-10.47-2.166-15.619
	c-1.097-3.981-1.889-8.082-2.209-12.27c-0.177-2.319-0.244-4.669-0.567-6.999c-0.271-1.957,0.037-4.044,0.391-6.02
	c0.258-1.44,0.3-2.856,0.274-4.284c-0.041-2.212,0.588-4.222,1.454-6.228c1.654-3.831,3.239-7.694,4.756-11.582
	c0.664-1.701,1.243-3.434,2.022-5.091c1.064-2.264,1.44-4.728,2.004-7.135c1.489,1.877,2.421,4.004,2.94,6.337
	c1.096,4.923,1.808,9.888,1.844,14.944c0.013,1.874,0.22,3.746,0.275,5.621c0.09,3.081-0.397,6.112-0.929,9.13
	c-0.385,2.182-0.941,4.334-1.299,6.52c-0.15,0.916-0.545,2.051,0.401,2.751c1.072,0.794,1.96-0.136,2.839-0.618
	c2.073-1.137,3.351-0.711,3.689,1.51c0.621,4.087,2.58,7.605,4.29,11.27c1.98,4.243,4.76,7.937,7.339,11.778
	c0.697,1.037,1.342,2.094,1.805,3.256c1.242,3.117,3.025,5.935,4.865,8.715c1.345,2.032,3.547,3.046,5.457,4.402
	c0.207,0.147,0.451,0.287,0.699,0.051c0.563-0.534,1.245-0.224,1.874-0.257c0.971-0.05,1.973,0.088,2.669-0.877
	c0.162-0.224,0.571-0.35,0.878-0.377c1.288-0.112,2.338-0.824,3.45-1.349c1.827-0.861,2.02-0.837,3.085,0.895
	c0.643,1.045,0.922,2.284,1.895,3.169c3.084,2.786,9.688-0.456,13.18-0.166c1.785,0.148,21.511,2.822,21.223-0.138
	c0.562,5.778,1.078,11.556,1.353,17.359c0.146,3.081,0.992,6.056,2.501,8.78c0.765,1.382,1.385,2.806,1.811,4.322
	c0.323,1.147,0.819,2.179,1.925,2.787c-0.721,0.481-0.09,0.924,0.076,1.335c0.291,0.724,0.748,1.38,0.737,2.209
	c-0.013,1.03-0.356,1.308-1.327,1.033c-0.188-0.053-0.377-0.118-0.547-0.212c-4.399-2.449-9.341-2.712-14.148-3.519
	c-0.963-0.162-1.945-0.247-2.888-0.488c-4.501-1.147-9.096-1.721-13.7-2.182c-6.032-0.604-12.076-1.091-18.115-1.619
	c-0.518-0.045-1.042-0.024-1.563-0.033c-1.028-0.576-2.164-0.337-3.241-0.35c-4.678-0.057-9.359,0.073-14.022,0.433
	c-3.496,0.269-6.984,0.765-10.296,2.034c-0.963,0.369-1.988,0.665-2.733,1.436C257.26,249.141,256.884,249.02,256.464,248.775z"/>
<path fill="#EEA878" d="M204.181,234.118c0.033-0.192,0.008-0.425,0.109-0.571c1.319-1.918,1.401-3.984,1.171-6.255
	c-0.21-2.077-0.468-4.123-0.844-6.177c-0.296-1.615-0.869-3.13-1.252-4.704c-0.649-2.674-0.643-5.349,0.22-8.251
	c0.779,0.703,1.25,1.306,1.546,2.007c1.766,4.183,4.086,8.15,4.989,12.67c0.264,1.323,1.203,2.288,1.792,3.436
	c1.072,2.091,2.155,4.165,3.099,6.324c1.142,2.609,2.666,4.999,5.149,6.644c-0.34,0.616-0.894,0.756-1.466,0.865
	C213.325,239.398,208.663,236.975,204.181,234.118z"/>
<path fill="#EFA979" d="M49.22,419.387c0.987-1.741,1.645-3.715,3.276-5.012c2.291-1.824,4.885-2.837,7.91-2.866
	c0.059,1.341-0.273,2.313-1.369,2.746c-1.84,0.726-3.079,2.162-4.424,3.487c-1.253,1.236-2.479,2.494-3.908,3.547
	c-0.855,0.631-1.407,0.499-1.903-0.359C48.942,420.416,49.081,419.902,49.22,419.387z"/>
<path fill="#4A4444" d="M116.941,525.171c0.648-0.964-0.034-2.38,1.082-3.185c1.159,1.897,0.636,3.944,0.422,5.916
	c-0.522,4.818-1.402,9.648-0.872,14.477c0.411,3.742,0.172,7.451,0.277,11.173c0.025,0.899,0.134,1.854-0.565,2.613
	c-0.494-0.008-0.987-0.015-1.481-0.023c0.016-3.589-0.215-7.177,0.177-10.769c0.174-1.592-0.119-3.23-0.062-4.842
	c0.148-4.154-0.196-8.341,0.716-12.448C116.85,527.119,116.928,526.151,116.941,525.171z"/>
<path fill="#645B5B" d="M190.817,130.34c0.99-1.031,2.288-0.65,3.449-0.643c0.845,0.005,0.313,0.579,0.114,0.93
	c-1.807,1.472-3.991,1.017-6.487,1.349C189.094,131.214,190.227,131.239,190.817,130.34z"/>
<path fill="#6D6865" d="M190.712,117.807c0.731,0.99,0.191,1.855-0.267,2.729C189.64,118.974,189.64,118.974,190.712,117.807z"/>
<path fill="#2B2B2B" d="M287.972,245.153c-0.381-1.174-12.793,1.503-13.954,1.804c-5.101,1.318-9.915,3.515-14.16,6.653
	c-5.671,4.191-9.838,7.976-6.718,15.16c1.03,2.372,2.894,3.998,0.16,5.043c-1.784,0.681-5.207-0.965-7.147-1.055
	c-3.313-0.153-5.526,0.223-8.311,2.068c-2.673,1.771-3.845,4.692-6.091,6.833c-2.771,2.641-6.226,2.619-9.885,3.075
	c6.395-0.797,17.109,8.538,12.86,15.304c-1.462,2.328-4.76-2.079-6.379-2.896c-3.153-1.589-6.766-1.368-10.191-1.219
	c-4.579,0.199-10.233-0.867-13.927,2.413c-3.221,2.859-5.169,7.09-8.422,10.081c-4.96,4.56-14.261,9.909-16.001,16.773
	c-1.091,4.302-2.602,8.473-4.098,12.644c-2.72,7.58-11.446,11.615-16.413,17.466c-4.13,4.866-7.975,9.779-12.505,14.299
	c-4.526,4.517-8.269,8.945-9.556,15.371c-1.298,6.482-0.524,11.579-4.703,17.102c-4.568,6.038-9.129,12.123-14.865,17.122
	c-1.911,1.666-3.901,3.058-6.186,4.164c-3.059,1.48-6.786,3.58-6.786,3.58c-1.04-1.182-4.891-3.838-5.7-5.174
	c-1.418-2.342-2.693-4.766-4.089-7.12c-4.726-7.969-13.976-15.149-11.091-25.504c1.451-5.208,4.452-9.592,7.556-13.886
	c3.763-5.206,7.365-10.496,10.373-16.189c1.434-2.714,3.136-5.29,4.76-7.901c1.15-1.849,2.117-3.767,2.491-5.929
	c0.237-1.37,0.905-2.499,2.009-3.263c3.785-2.617,6.898-5.977,10.287-9.037c3.382-3.053,6.426-6.316,8.809-10.209
	c2.252-3.68,5.075-6.97,7.382-10.62c1.043-1.65,2.638-2.47,4.622-2.521c2.352-0.06,4.702-0.201,7.053-0.228
	c0.913-0.011,1.672-0.204,2.268-0.91c3.81-4.516,10.423-8.613,15.068-12.376c5.265-4.265,11.095-8.02,17.977-8.812
	c16.53-1.904,32.108-12.35,45.836-21.127c2.026-1.295,3.756-3.027,5.953-4.076c2.778-3.727,6.831-5.876,10.543-8.424
	c3.111-2.135,6.458-3.887,9.947-5.358c7.235-3.922,15.194-3.713,23.053-4.036c2.017-0.083,4.042-0.056,6.06,0.011
	C286.643,244.276,287.614,244.049,287.972,245.153z"/>
<g id="fanguang">
	<path fill="#FFCCA9" d="M83.617,389.479c1.593,1.168,1.879,7.39,2.394,9.086c1.184,3.899,3.041,7.45,5.428,10.749
		c7.553,10.436,17.21,19.375,24.465,29.996c0.546,0.8,1.212,1.93,1.53,2.886c0.08,0.681-1.096,1.202-1.521,1.623
		c-5.348,5.289-10.935,10.325-16.434,15.453c-2.44,2.276-5.391,3.937-7.843,6.211c-3.643,3.379-7.46,6.564-11.06,9.988
		c-3.46,3.291-7.111,6.363-10.758,9.441c-3.246,2.74-6.227,5.794-9.697,8.27c-3.832,2.735-7.76,5.307-11.92,7.539
		c-3.365,1.805-6.802,3.32-10.546,4.141c-4.239,0.93-8.503,1.127-12.83,0.911c-6.326-0.316-11.243,7.791-16.949,5.333
		c-2.948-1.27-5.57-10.149-7.091-13.977c-1.38-3.473-0.655-8.073,0.02-11.616c4.189-21.998,18.837-45.629,38.65-56.585
		c2.327-1.287,4.092-3.229,5.941-5.078c1.059-1.059,2.005-2.257,3.407-2.92c1.25,0.312,2.125-0.398,2.973-1.124
		c2.411-2.067,4.304-4.734,7.245-6.197c0.432-0.215,0.918-0.727,0.599-1.278c-0.318-0.55-0.954-0.275-1.432-0.149
		c-3.409,0.897-6.288,2.489-7.789,5.925c-0.225,0.516-0.227,1.376-1.178,1.281c-0.43-2.754,0.916-4.992,2.311-7.101
		c1.344-2.032,3.479-2.659,5.877-2.249c0.834,0.143,1.656,0.358,2.487,0.521c1.093,0.214,1.458-0.023,1.53-1.113
		c0.068-1.043-0.057-2.104,0.066-3.137c0.532-4.47,4.184-7.382,8.852-6.913c4.859,0.481,7.794-6.786,13.021-10.054
		C83.443,389.292,83.536,389.42,83.617,389.479z"/>
	<path fill="#FFCCA9" d="M256.464,248.775c-2.622,1.414-5.33,2.692-7.844,4.277c-3.397,2.141-6.642,4.524-9.961,6.79
		c-0.477,0.325-0.651,0.772-0.763,1.299c-0.163,0.764-0.56,1.309-1.434,1.315c-0.305-0.177-0.686-0.309-0.474-0.794
		c0.653-1.493-2.238-5.953-2.784-7.254c-0.997-2.377-1.962-11.516-4.313-11.576c-2.487-0.064-4.882-0.688-7.292-1.207
		c-1.09-0.235-2.085-0.728-2.903-1.519c0.358-0.691,0.131-1.192-0.404-1.723c-1.836-1.822-3.138-4.001-4.085-6.398
		c-0.144-0.365-0.267-0.746-0.475-1.076c-2.315-3.685-3.917-7.812-5.319-11.918c-1.034-3.028-1.444-7.281-4.355-9.131
		c-0.999,1.568-0.817,4.423-0.208,6.287c1.311,4.011,2.072,8.117,2.248,12.301c0.085,2.031,0.123,4.26-1.915,5.671
		c-1.136-0.31-1.965-1.085-2.627-1.972c-6.523-8.755-6.051-19.634-6.624-30.018c-0.633-11.47-4.547-22.284-5.513-33.671
		c-0.931-10.972,0.207-21.434,2.634-32.117c0.206-0.906,1.04-1.484,1.525-2.259c0.672-1.072,1.101-2.171,0.804-3.454
		c-1.114-1.008-2.382-0.109-3.564-0.287c-0.702-0.761-0.882-1.659-0.85-2.68c0.168-5.276,1.215-10.605,1.873-15.835
		c0.954-7.582,0.557-11.324,8.038-15.162c0.966-0.495,1.684,0.044,1.402,1.034c-1.153,4.057-0.233,8.028,0.327,12.024
		c0.145,1.033,0.316,2.1,0.21,3.124c-0.367,3.533,0.434,6.894,1.337,10.245c0.413,1.532,0.47,1.588,1.98,1.205
		c0.736-0.187,0.965,0.017,1.038,0.668c0.057,0.515,0.126,1.042,0.152,1.545c0.276,5.335,1.264,10.602,1.458,15.947
		c0.104,2.858,0.849,5.672,0.771,8.555c-0.01,0.35,0.134,0.632,0.423,0.931c1.013-0.385,1.57-1.265,2.135-2.122
		c1.149-1.742,2.258-3.512,3.422-5.244c1.234-1.837,1.263-1.85,3.467-1.088c0.889,0.307,1.57,0.057,2.089-0.61
		c0.559-0.719,1.117-1.472,1.496-2.292c1.827-3.952,4.577-7.092,8.096-9.625c1.591-1.146,3.036-2.493,4.602-3.677
		c1.207-0.912,2.52-1.66,4.109-1.688c0.743-0.247,1.303-0.267,1.181,0.803c-0.067,0.585-0.069,1.17-0.364,1.708
		c-1.257,2.29-1.619,4.812-1.861,7.357c-0.089,0.939-0.306,1.791-0.945,2.516c-2.783,3.163-4.076,7.12-5.736,10.875
		c-0.329,0.745-0.794,1.976,0.014,2.326c1.11,0.481,1.372-0.892,1.728-1.64c1.109-2.329,2.894-4.191,4.26-6.34
		c0.764-1.203,1.276-2.428,1.163-3.86c-0.348-4.428,0.401-8.699,1.763-12.894c0.208-0.64,0.445-1.041,1.192-0.992
		c1.301,0.085,2.611-0.121,3.908,0.113c0.128,0.008,0.255,0.02,0.383,0.023c3.26,0.08,3.26,0.079,4.307,3.225
		c0.556,2.384-0.388,4.53-1.234,6.617c-2.481,6.12-4.666,12.361-7.433,18.367c-0.689,1.494-1.038,3.105-0.995,4.77
		c0.073,2.824-0.321,5.613-0.667,8.4c-0.286,2.31,0.229,4.565,0.349,6.84c0.283,5.367,1.321,10.64,2.732,15.824
		c1.458,5.354,1.723,10.844,1.862,16.328c0.104,4.129,0.308,8.23,1.008,12.3c0.956,5.55,3.523,10.523,5.661,15.642
		c1.865,4.466,3.549,9.009,5.646,13.378C256.542,247.744,256.756,248.244,256.464,248.775z"/>
	<path fill="#FFCCA9" d="M81.087,508.653c0.149-0.212,0.25-0.527,0.454-0.62c2.241-1.025,3.645-3.095,5.614-4.454
		c0.214-0.148,0.426-0.299,0.646-0.437c0.677-0.422,1.13-0.375,1.529,0.453c0.815,1.694,1.78,3.306,3.025,4.741
		c0.862,0.993,1.967,1.55,3.194,1.763c1.674,0.29,3.389,0.196,5.076,0.059c0.862-0.07,1.534-0.687,2.109-1.334
		c0.389-0.438,0.754-0.435,1.138,0.003c0.172,0.196,0.388,0.355,0.549,0.558c1.559,1.962,3.539,1.945,5.667,1.211
		c3.611-1.247,6.552-3.417,8.863-6.453c0.116-0.153,0.234-0.321,0.502-0.25c0.343,0.504,0.005,1.125,0.221,1.662
		c0.11,0.179,0.158,0.374,0.146,0.583c-0.113,0.915-0.077,1.833-0.039,2.753c-0.018,2.088-0.311,4.151-0.692,6.191
		c-0.418,2.237-0.889,4.453-0.674,6.748c-0.708,1.017-0.15,2.597-1.475,3.343c-0.153-0.555,0.151-1.183-0.286-1.724
		c-2.857,0.961-5.814,1.244-8.819,1.405c-2.517,0.135-4.396-0.914-6.136-2.502c-1.167-1.065-2.089-2.329-3.001-3.603
		c-0.387-0.54-0.824-0.8-1.49-0.413c-1.71,0.994-3.591,0.756-5.324,0.335c-2.642-0.642-4.863-2.096-6.611-4.277
		c-1.061-1.325-2.246-2.511-2.728-4.224C82.357,509.494,81.762,508.979,81.087,508.653z"/>
</g>
<path fill="#2B2B2B" d="M117.285,556.166c0.006-3.512,0.054-7.024,0.002-10.535c-0.026-1.794-0.489-3.547-0.454-5.373
	c0.081-4.298,0.562-8.545,1.113-12.799c0.233-1.798,0.064-3.648,0.077-5.474c-0.485-2.081,0.042-4.086,0.373-6.126
	c0.387-2.377,0.59-4.784,0.872-7.178c0.443-0.877-0.146-1.888,0.361-2.756c0.077-0.116,0.092-0.24,0.045-0.372
	c0.682-2.063,0.74-4.235,1.038-6.357c0.893-6.352,2.288-12.598,3.941-18.78c0.758-2.837,2.193-5.148,5.267-6.472
	c5.29-2.277,9.991-5.674,14.819-8.801c0.625-0.405,1.081-0.946,1.21-1.71c0.001-0.306,0.152-0.538,0.365-0.739
	c1.84,0.634,3.703,1.211,5.514,1.92c1.63,0.638,2.908,0.502,4.246-0.811c3.172-3.113,6.835-5.639,10.395-8.287
	c3.243-2.412,6.439-4.893,9.575-7.443c3.088-2.51,6.076-5.142,9.078-7.757c2.3-2.003,5.002-3.547,7.543-5.27
	c1.567-1.062,3.168-2.075,4.553-3.383c0.486-0.459,1.068-0.768,1.73-0.866c0.584-0.086,1.248-0.188,1.673,0.297
	c0.491,0.559-0.265,0.905-0.41,1.361c-0.736,2.314-2.319,4.047-4.004,5.708c-1.397,1.377-2.732,2.804-3.986,4.323
	c-1.926,2.334-4.491,3.978-6.799,5.896c-0.5,0.416-1.028,0.802-1.49,1.264c-2.874,2.872-5.903,5.61-8.566,8.666
	c-2.248,2.579-4.819,4.79-7.291,7.097c-5.74,5.357-11.468,10.722-16.998,16.297c-4.286,4.321-8.141,9.004-11.756,13.89
	c-1.63,2.204-3.257,4.402-4.665,6.769c-0.848,1.425-1.504,2.918-2.005,4.456c-0.808,2.479-1.386,5.031-2.258,7.498
	c-0.363,1.028-0.183,1.166,0.932,1.095c1.308-0.083,1.685,0.165,1.648,1.515c-0.086,3.131,0.138,6.255-0.271,9.402
	c-0.257,1.98-0.407,4.017-0.518,6.035c-0.122,2.21-0.631,4.377-0.905,6.574c-0.291,2.33-0.41,4.674-0.581,7.001
	c-0.25,3.389-0.056,6.811-0.051,10.219C126.194,556.163,121.739,556.164,117.285,556.166z"/>
<path fill="#F0AB7D" d="M244.698,125.565c-1.243,0.034-2.485,0.07-3.728,0.101c-0.498,0.012-0.998,0.129-0.97,0.717
	c0.092,1.896-0.904,3.519-1.299,5.292c-0.394,1.767-0.304,3.513-0.314,5.269c-0.027,5.02,0.051,5.064-2.936,8.972
	c-1.159,1.517-2.186,3.059-2.964,4.799c-0.364,0.813-0.894,1.688-2.011,1.553c-0.682-0.082-0.953-1.05-0.718-2.403
	c0.089-0.511,0.233-1.029,0.45-1.498c1.236-2.671,2.497-5.331,3.765-7.987c0.167-0.35,0.363-0.725,0.646-0.976
	c2.201-1.951,2.433-4.577,2.591-7.256c0.09-1.534,0.864-2.869,1.512-4.212c0.264-0.547,0.408-1.084,0.533-1.654
	c0.185-0.84-0.535-0.512-0.864-0.688C240.492,125.126,242.594,125.198,244.698,125.565z"/>
<path fill="#F0AB7C" d="M62.804,409.421c-0.319-0.829-0.225-1.516-0.01-2.22c0.764-2.498,2.355-4.335,4.562-5.645
	c0.545-0.324,1.21-0.514,1.843-0.602c0.685-0.095,1.521-0.253,1.918,0.566c0.369,0.761-0.288,1.193-0.733,1.649
	c-1.41,1.448-2.914,2.803-4.119,4.449c-0.371,0.507-0.82,1.125-1.536,1.115C64.018,408.724,63.61,409.381,62.804,409.421z"/>
<path fill="#EEA777" d="M119.63,505.925c0.075,0.945,0.047,1.876-0.361,2.757C119.256,507.746,118.932,506.769,119.63,505.925z"/>
<path fill="#4A4444" d="M193.225,100.956c-0.306-0.453-0.229-1.16-0.339-1.655c-0.138-0.622-0.272-1.248-0.364-1.879
	c-0.186-1.286-0.005-2.554,0.136-3.833c0.101-0.916,0.112-1.869-0.347-2.697c-0.483-0.871-1.268-0.506-1.943-0.046
	c-1.742,1.186-3.989,2.446-6.142,2.541c-0.892,0.039-2.171-0.381-1.866-1.518c0.185-0.691,0.801-1.162,1.286-1.649
	c0.532-0.533,1.013-1.112,1.458-1.72c0.885-1.209,1.616-2.52,2.385-3.802c0.426-0.709,0.864-1.412,1.345-2.085
	c3.562-4.981,6.124-10.491,8.971-15.863c3.416-6.445,8.042-12.047,12.691-17.634c4.412-5.302,9.726-9.455,15.598-12.971
	c1.067-0.639,2.252-1.011,3.369-1.54c-7.934-0.295-11.809,2.705-19.159,1.958c0.492,0.176,4.095-5.088,4.473-5.534
	c2.688-3.176,5.9-5.942,9.133-8.545c7.295-5.874,15.857-10.438,24.837-13.098c5.071-1.502,10.207-2.471,15.501-2.666
	c6.956-0.255,13.918,0.428,20.743,1.764c1.786,0.35,3.572,0.731,5.333,1.19c1.35,0.352,4.177,0.841,5.107,1.976
	c-3.786-4.626-10.242-6.634-15.475-8.091c-1.348-0.376-2.586-0.878-3.926-1.291c-0.749-0.231-2.432-0.838-3.2-0.584
	c4.159-1.375,11.948-1.871,16.132-1.624c5.617,0.332,10.992,1.469,16.416,2.914c11.048,2.942,30.948,10.846,32.429,24.292
	c0.091,0.83,0.592,0.922,1.234,0.85c11.546-1.298,25.81,3.544,31.308,14.502c-0.258-0.429-4.155-0.086-4.78-0.111
	c-1.134-0.045-4.383-0.199-5.272,0.521c-1.473,1.193,2.03,2.222,3.126,2.803c10.541,5.585,15.811,18.029,18.27,29.098
	c0.715,3.217,1.306,6.496,1.721,9.766c1.259,9.906-1.623,18.731-4.309,28.134c-2.076,7.267-4.301,14.485-6.847,21.603
	c-2.511,7.021-6.966,13.128-10.38,19.709c-3.881,7.481-7.498,15.12-10.576,22.968c-2.94,7.495-4.413,15.434-6.377,23.214
	c-0.782,3.096-1.638,6.179-2.7,9.192c-0.672,1.906-1.532,5.82-3.24,7.087c-2.352-1.4-1.445-3.759-1.771-5.84
	c-0.635-0.071-1.275,0.354-1.288,0.673c-0.485,11.472-29.707,3.484-36.659,5.336c-0.753,0.201-1.402-0.157-1.969-0.655
	c-0.648-0.568-1.101-1.277-1.527-2.015c-2.171-3.758-5.815-0.526-8.644,0.371c-10.212,3.237-14.288-12.539-18.412-18.56
	c-4.182-6.106-8.031-12.543-9.89-19.77c-0.717-2.787-1.045-2.979-3.765-1.826c-2.397,1.016-3.554,0.283-3.419-2.312
	c0.7-13.464,5.409-30.789-2.562-43.003c-3.408-5.222-10.798-3.326-15.448-0.437c-3.552,2.207-6.24,5.453-8.749,8.739
	c-1.559,2.042-4.147,7.813-7.414,6.538c-1.13-0.441-1.874,0.159-2.503,1.008c-1.094,1.477-1.92,3.125-2.976,4.626
	c-0.377,0.536-0.705,1.111-1.165,1.579c-0.548,0.558-1.131,1.239-2.01,0.881c-0.777-0.316-0.771-1.14-0.834-1.863
	c-0.658-7.492-1.367-14.98-2.08-22.468c-0.129-1.351-0.079-2.795-2.105-2.885c-0.788-0.035-1.023-0.956-1.188-1.655
	c-0.662-2.801-1.45-5.586-1.332-8.511c0.093-2.298,0.015-4.598-0.473-6.844c-0.633-2.915-0.911-5.812-0.277-8.76
	c0.103-0.479,0.351-1.125-0.195-1.449c-0.491-0.292-1.012,0.093-1.463,0.341c-1.495,0.818-2.934,1.723-4.238,2.833
	c-0.348,0.296-0.67,0.886-1.191,0.502C193.351,101.114,193.281,101.039,193.225,100.956z"/>
<path fill="#423F3F" d="M248.106,128.171c-0.158-0.497-0.316-0.994-0.474-1.491c0.442-0.775,1.311-0.315,1.557-0.145
	c0.924,0.636,1.893,0.452,2.857,0.477c6.567,0.175,11.806,2.842,15.873,8.055c2.325,2.981,4.155,6.152,5.371,9.72
	c0.391,1.147,0.438,2.319,0.556,3.474c0.316,3.093,1.664,5.895,2.352,8.881c0.181,0.784,0.265,1.544,0.262,2.329
	c-0.011,3.539-0.072,7.079,0.423,10.597c0.025,0.177,0.132,0.343,0.238,0.606c0.758-0.088,1.174-0.625,1.512-1.143
	c2.43-3.724,4.785-7.499,7.255-11.196c1.049-1.57,2.004-3.234,3.429-4.528c1.28-1.162,2.27-1.065,3.267,0.329
	c0.577,0.807,1.001,1.684,1.206,2.661c0.538,2.554,0.866,5.141,1.259,7.719c0.274,1.795,0.742,3.587,2.01,5.027
	c0.945,1.073,1.966,1.206,3.021,0.306c0.801-0.684,1.423-1.526,2.041-2.382c1.414-1.961,2.925-3.853,4.344-5.811
	c0.712-0.982,1.595-1.739,2.62-2.339c1.078-0.631,2.113-0.504,3.025,0.401c1.534,1.523,2.214,3.54,3.028,5.466
	c0.765,1.809,1.054,3.772,1.862,5.585c0.952,2.139,2.464,3.718,4.42,4.844c1.032,0.594,2.261,0.552,3.37-0.088
	c1.566-0.904,2.782-2.222,3.897-3.584c2.775-3.391,5.556-6.768,8.445-10.067c2.091-2.388,4.628-4.244,6.747-6.566
	c1.05-1.152,2.593-1.744,3.691-2.913c1.878-2.001,3.959-3.807,5.61-6.026c1.872-2.517,4.017-4.858,5.666-7.51
	c3.456-5.557,6.75-11.209,9.345-17.257c1.572-3.663,3.319-7.255,4.835-10.949c0.849-2.068,1.412-4.228,1.986-6.369
	c0.402-1.499,1.347-2.746,1.469-4.323c0.927,0.292,0.247,1.179,0.824,1.494c0.786-0.104,0.285-1.315,1.274-1.361
	c-0.14,1.632-1.061,3.139-0.663,4.797c1.462-0.069,1.473-0.069,1.502,1.35c0.04,1.996-0.694,3.849-1.145,5.747
	c-0.513,2.162-1.203,4.284-1.845,6.414c-0.157,0.52-0.165,1.032-0.146,1.557c-2.007,6.999-4.728,13.74-7.37,20.511
	c-0.571,1.463-1.156,2.922-1.679,4.403c-0.164,0.465-0.327,0.694-0.809,0.444c-0.741-0.384-0.953,0.149-1.051,0.669
	c-0.498,2.627-1.806,4.924-3.062,7.206c-4.968,9.026-9.066,18.461-13.234,27.862c-2.35,5.299-3.525,10.949-4.731,16.585
	c-0.876,4.093-1.744,8.19-2.856,12.228c-0.558,2.027-1.286,3.986-2.226,5.874c-0.287,0.577-0.446,1.182-1.132,1.408
	c-0.07-0.86-1.341-0.816-1.31-1.811c0.029-0.912-0.093-1.831-0.165-2.745c-0.034-0.441,0.136-0.926-0.234-1.299
	c-0.381-0.077-0.779,0.129-0.844,0.364c-0.445,1.594-1.971,1.763-3.106,2.43c-0.7,0.411-1.399,0.767-1.277,1.752
	c-1.191,1.378-2.886,1.397-4.484,1.623c-4.853,0.687-9.661-0.396-14.498-0.423c-0.528-0.003-1.054-0.131-1.528-0.36
	c-1.612-0.777-3.146-0.716-4.688,0.23c-0.991,0.609-2.134,0.676-3.254,0.479c-1.428-0.252-2.816-0.435-4.291-0.166
	c-1.542,0.281-2.358-0.925-3.083-2.04c-1.984-3.046-1.918-2.891-5.397-1.733c-1.979,0.658-3.756,2.419-6.136,1.534
	c-2.758-1.859-6.087-2.92-8.137-5.78c-0.147-0.118-0.287-0.244-0.427-0.37c-0.15-0.118-0.288-0.248-0.423-0.382
	c-0.68-0.73-1.14-1.623-1.532-2.503c-1.977-4.433-4.717-8.422-7.19-12.568c-1.274-4.298-2.651-8.538-6.296-11.545
	c-1.108-1.687-1.497-3.629-1.957-5.543c-0.592-2.466-1.115-2.744-3.402-1.777c-2.861,1.209-4.092,0.307-3.721-2.84
	c0.315-2.674,1.182-5.247,1.554-7.922c1.384-9.957,0.441-19.766-1.723-29.512c-0.416-1.872-1.792-3.343-2.128-5.242l-0.004-0.009
	C248.229,128.759,248.289,128.414,248.106,128.171z"/>
<path fill="#423F3F" d="M297.396,35.673c4.402-0.126,8.766,0.339,13.056,1.217c2.402,0.492,4.852,1.023,7.041,2.304
	c1.817,1.063,3.881,1.563,5.824,2.342c1.021,0.409,1.196,0.222,1.265-0.881c0.028-0.445-0.023-0.897,0.017-1.34
	c0.131-1.443,1.063-2.057,2.369-1.459c1.154,0.528,2.27,1.161,3.343,1.843c3.534,2.247,7.331,4.071,10.669,6.638
	c0.508,0.391,1.038,0.757,1.439,1.244c2.077,2.522,4.773,4.297,7.373,6.192c2.773,2.021,4.598,4.547,5.167,8.095
	c0.505,3.151,0.205,6.211-0.165,9.292c-0.117,0.977-0.629,1.938-1.098,2.834c-0.823,1.572-2.175,1.59-3.021-0.005
	c-1.277-2.41-3.045-4.502-4.23-6.985c-1.075-2.254-3.33-3.498-5.348-4.749c-1.73-1.072-3.377-2.236-5.028-3.408
	c-1.712-1.215-3.367-2.533-5.453-3.084c-1.537-0.407-2.086,0.05-1.752,1.613c0.29,1.359,0.747,2.685,1.164,4.015
	c0.656,2.095,0.759,4.243,0.702,6.416c-0.016,0.594-0.123,1.142-0.425,1.643c-0.528,0.874-1.125,1.038-2.09,0.627
	c-1.346-0.574-2.239-1.699-3.154-2.74c-1.423-1.618-2.593-3.467-4.073-5.025c-1.997-2.1-4.448-3.57-7.269-4.378
	c-2.145-0.615-4.379-0.686-6.553-1.122c-0.818-0.164-1.624,0.245-2.429,0.376c-2.806,0.455-5.704,0.33-8.423,1.385
	c-1.046,0.406-1.905,0.855-2.553,1.846c-0.654,1-1.515,1.88-2.31,2.782c-1.14,1.293-2.797,1.691-4.434,1.972
	c-0.62,0.106-1.281,0.079-1.912,0.008c-2.317-0.26-4.383,0.46-6.405,1.486c-3.409,1.73-6.793,3.509-10.455,4.696
	c-0.839,0.272-1.374,0.296-2.041-0.326c-2.068-1.93-2.218-2.935-0.304-5.159c1.287-1.496,2.648-2.99,4.212-4.171
	c1.84-1.389,3.306-3.157,5.13-4.564c1.599-1.232,3.176-2.547,4.638-3.949c1.92-1.841,2.822-3.342,0.297-5.778
	c-0.687-0.663-1.357-1.332-1.849-2.179c-0.957-1.648-0.697-3.267,0.869-4.305c3.592-2.379,7.549-3.891,11.731-4.877
	C293.074,35.545,295.236,35.714,297.396,35.673z"/>
<path fill="#423F3F" d="M204.909,127.549c-0.967-0.197-2.134,0.005-2.843-0.658c-0.945-0.884-0.886-3.647-0.913-4.862
	c-0.055-2.487-0.165-6.968,0.111-10.712c0.742,1.285,5.862,10.345,4.814,11.44c1.303-1.36,2.617-5.928,4.74-2.085
	c1.186,2.15,0.535,5.009,0.561,7.339c0.029,2.605,0.395,5.208,0.579,7.805c0.156,2.21,0.697,4.384,0.469,6.583
	c0.509,0.137,0.76-0.115,0.883-0.387c1.892-4.177,4.641-7.97,6.707-12.078c1.708-3.396,3.778-7.191,8.086-7.258
	c2.533-0.039,4.755,0.039,7.193,0.643c2.074,0.513,4.498,0.075,6.479,0.936c0.561,0.244,3.654,1.903,3.654,1.903
	s-1.54-0.056-2.431,0.059c-1.052,0.135-1.626-0.015-2.594,0.094c-1.22,0.137-2.397,0.353-3.583,0.667
	c-2.255,0.596-4.295,2.691-5.917,4c-1.179,0.952-2.495,2.073-3.535,3.175c-1.186,1.257-2.038,2.403-2.864,3.684
	c-1.656,2.566-3.351,5.937-5.981,6.182c-4.495,0.418-3.184,1.106-5.121,2.838c-0.765,0.684-4.822,8.313-5.579,3.522
	c-0.835-5.284-0.987-10.671-1.442-15.996c-0.129-1.504-0.293-4.759-0.158-5.92C206.299,127.819,205.446,127.658,204.909,127.549z"/>
	<path class="shanshuo" style="transform:translate(-20px,-50px); transition:all .3s; " fill="none" stroke="#000" stroke-width="6" stroke-miterlimit="10" d="M376.618,500.456
	c7.927-23.512,17.414-63.874,17.93-92.435c-11.745,3.698-77.542,11.767-106.306,10.46c-3.69,27.486-14.072,74.183-20.725,98.064
	C306.724,517.336,350.783,510.786,376.618,500.456z"/>
    <path class="shanshuo" style="transform:translate(-20px,-50px); transition:all .3s; " fill="none" stroke="#000" stroke-width="6" stroke-miterlimit="10" d="M393.056,427.854c0,0-28.716,30.907-49.033,40.23
	c-19.709-7.079-58.652-31.502-58.652-31.502"/>
</svg>